<svg xmlns="http://www.w3.org/2000/svg" viewBox="0 0 32 32"><path fill="#fff" d="M19.11 17.31a4.17 4.17 0 0 1-1.89-.51c-.58-.31-1.26-.69-2.02-1.44-.76-.76-1.13-1.44-1.44-2.02a4.17 4.17 0 0 1-.51-1.89c0-.27.16-.5.36-.7l.52-.52c.2-.2.28-.48.18-.74l-.86-2.2c-.1-.27-.37-.44-.66-.44h-.01a3 3 0 0 0-2.1.87c-.53.53-.83 1.24-.83 1.99 0 1.12.36 2.22 1.06 3.4.69 1.16 1.68 2.36 2.96 3.64 1.28 1.28 2.48 2.27 3.64 2.96 1.18.7 2.28 1.06 3.4 1.06.75 0 1.46-.3 1.99-.83.56-.56.9-1.3.9-2.1v-.01c0-.29-.18-.56-.44-.66l-2.2-.86c-.26-.1-.55-.02-.74.18l-.52.52c-.2.2-.43.36-.7.36z"/><path fill="#25D366" d="M27.88 4.12A13.94 13.94 0 0 0 4.12 27.88L2 30l2.12-2.12A13.94 13.94 0 0 0 27.88 4.12zM16 26c-2.64 0-5.11-.82-7.19-2.23l-.51-.35-2.44.71.7-2.43-.35-.52A9.96 9.96 0 1 1 26 16c0 5.52-4.48 10-10 10z"/></svg>