<svg xmlns="http://www.w3.org/2000/svg" viewBox="0 0 32 32"><path fill="#fff" d="M19.11 17.31a4.17 4.17 0 0 1-1.89-.51c-.58-.31-1.26-.69-2.02-1.44-.76-.76-1.13-1.44-1.44-2.02a4.17 4.17 0 0 1-.51-1.89c0-.27.16-.5.36-.7l.52-.52c.2-.2.28-.48.18-.74l-.86-2.2c-.1-.27-.37-.44-.66-.44h-.01a3 3 0 0 0-2.1.87c-.53.53-.83 1.24-.83 1.99 0 1.12.36 2.22 1.06 3.4.69 1.16 1.68 2.36 2.96 3.64 1.28 1.28 2.48 2.27 3.64 2.96 1.18.7 2.28 1.06 3.4 1.06.75 0 1.46-.3 1.99-.83.56-.56.9-1.3.9-2.1v-.01c0-.29-.18-.56-.4-.74l-2.16-1c-.26-.12-.57-.07-.77.13l-.54.55c-.2.2-.43.36-.7.36Z"/><path fill="#25D366" d="M16 3a13 13 0 1 0 7.47 23.67l3.67 1.15a1 1 0 0 0 1.26-1.26l-1.15-3.67A13 13 0 0 0 16 3m0 2a11 11 0 0 1 9.85 15.93c-.1.2-.12.43-.06.66l.72 2.29-2.29-.72a1 1 0 0 0-.66.06A11 11 0 1 1 16 5Z"/></svg>